<svg width="40" height="40" viewBox="0 0 40 40" fill="none" xmlns="http://www.w3.org/2000/svg">
<g id="svgexport-1 1" clip-path="url(#clip0_49_134)">
<path id="Vector" d="M20 40C31.0457 40 40 31.0457 40 20C40 8.9543 31.0457 0 20 0C8.9543 0 0 8.9543 0 20C0 31.0457 8.9543 40 20 40Z" fill="#333333"/>
<path id="Vector_2" d="M17.2037 20.3952C17.2931 20.2856 17.3414 20.148 17.3402 20.0065C17.3389 19.8649 17.2883 19.7283 17.1969 19.6201L8.59375 8.67218H14.8029C14.9733 8.66827 15.1424 8.70187 15.2984 8.7707C15.4542 8.83952 15.5931 8.94187 15.7052 9.07038L23.9966 19.5805C24.0882 19.6884 24.1392 19.825 24.1406 19.9666C24.142 20.1082 24.0938 20.2459 24.0043 20.3555L15.9191 30.9557C15.8137 31.0919 15.6794 31.203 15.5259 31.2809C15.3723 31.3589 15.2034 31.4016 15.0313 31.4062H8.59375L17.2037 20.3952Z" fill="#C3D641"/>
<path id="Vector_3" d="M27.8871 19.993C27.8841 19.8513 27.8337 19.7148 27.7437 19.6053L19.1406 8.67188H25.3465C25.7175 8.67188 26.0613 8.81531 26.2492 9.05281L31.1029 15.2054C31.2909 15.4438 31.4206 15.7201 31.2376 15.9605L28.3453 19.6014C28.258 19.7117 28.2105 19.8484 28.2106 19.9891C28.2133 20.1307 28.2634 20.2673 28.353 20.3769L31.1891 23.9635C31.2791 24.074 31.3281 24.2122 31.3281 24.3547C31.3281 24.4971 31.2791 24.6353 31.1891 24.7458L26.4623 30.9409C26.3545 31.0795 26.2177 31.1928 26.0616 31.2732C25.9056 31.3535 25.734 31.3989 25.5586 31.4062H19.1406L27.7516 20.3749C27.8391 20.2647 27.8869 20.128 27.8871 19.9872" fill="#C3D641"/>
</g>
<defs>
<clipPath id="clip0_49_134">
<rect width="40" height="40" fill="white"/>
</clipPath>
</defs>
</svg>
